<svg version="1.1" id="Group_5" xmlns="http://www.w3.org/2000/svg" x="0" y="0" viewBox="-272 366 66 62" xml:space="preserve"><style>.st2{fill:#5595d2}.st3{fill:#cec5cb}</style><path id="Rectangle" fill="#fff" d="M-272 366h66v62h-66z"/><path id="Rectangle-2" fill="#40b09b" d="M-268 419h58v6h-58z"/><circle id="Oval" class="st2" cx="-266" cy="381" r="3"/><circle id="Oval_Copy" class="st2" cx="-266" cy="392" r="3"/><circle id="Oval_Copy_2" class="st2" cx="-266" cy="402" r="3"/><circle id="Oval_Copy_3" class="st2" cx="-266" cy="413" r="3"/><path id="Rectangle-3" class="st3" d="M-260 378h49v3h-49z"/><path id="Rectangle_Copy" class="st3" d="M-260 381h49v3h-49z"/><path id="Rectangle_Copy_13" fill="#ff0046" d="M-272 367h66v7h-66z"/><path id="Rectangle_Copy_2" class="st3" d="M-260 388h49v3h-49z"/><path id="Rectangle_Copy_3" class="st3" d="M-260 392h49v3h-49z"/><path id="Rectangle_Copy_4" class="st3" d="M-260 399h49v3h-49z"/><path id="Rectangle_Copy_5" class="st3" d="M-260 403h49v3h-49z"/><path id="Rectangle_Copy_6" class="st3" d="M-260 410h49v3h-49z"/><path id="Rectangle_Copy_7" class="st3" d="M-260 413h49v3h-49z"/></svg>