<svg version="1.1" id="Layer_1" xmlns="http://www.w3.org/2000/svg" x="0" y="0" viewBox="0 0 585.7 373.5" xml:space="preserve"><style>.st0{fill:#fff}</style><g id="XMLID_59_"><path id="XMLID_62_" class="st0" d="M137 0C57.8 0 0 52.3 0 125.4c0 73.7 56.7 119.9 123.2 119.9 37.4 0 67.7-16 82.5-38.5-5 65.4-48.4 101.2-113.3 101.2-24.8 0-50.6-8.3-63.3-15.4l-18.7 61c18.7 11.6 52.3 19.8 82.5 19.8 122.1 0 186.5-75.9 186.5-204.6C279.4 55 214.5 0 137 0zm-2.8 182.1c-33.5 0-61-23.1-61-58.9 0-35.2 28-58.9 61-58.9 33.6 0 61.6 23.6 61.6 58.9s-28 58.9-61.6 58.9z"/><path id="XMLID_63_" class="st0" d="M482.3 146.3l92.4-77v-61H322.3v65.5h156.2L385 154l33.5 52.8c7.7-2.8 17.1-5.5 32.5-5.5 34.1 0 58.3 19.3 58.3 52.8 0 29.7-22.5 53.9-60.5 53.9-37.4 0-63.3-26.4-64.9-62.7l-73.2 14.3c4.4 60 55 113.9 138.1 113.9 86.4 0 137-56.7 137-118.3-.1-65.4-49.6-106.7-103.5-108.9z"/></g></svg>