<svg version="1.1" id="Layer_1" xmlns="http://www.w3.org/2000/svg" x="0" y="0" viewBox="1128 104.8 2867.3 585.3" xml:space="preserve"><style>.st0{fill:#5695d0}</style><g id="XMLID_42_"><path id="XMLID_58_" class="st0" d="M3241.1 287.4c-9.3-9.5-19.6-17.9-30.7-25.2-11.2-7.3-23.1-13.4-35.6-18.3-12.9-5-26.2-8.7-39.8-11.1-14.3-2.5-28.7-3.8-43.2-3.8-14.4 0-28.8 1.2-43 3.8-13.5 2.4-26.8 6.1-39.6 11.1-12.4 4.8-24.3 11-35.5 18.3-11.1 7.3-21.4 15.7-30.6 25.2-19 19.5-33.8 43.2-43.9 70.5-10.6 28.5-15.9 60.7-15.9 95.7v1.8c-.1 19.4 1.5 38.9 4.6 58.1 2.7 16.7 7.1 33.2 12.9 49.1 5.3 14.2 12 27.8 20.2 40.5 22 34.2 54.7 60.1 93 73.7 12.4 4.5 25.1 7.8 38 9.9 13.1 2.2 26.4 3.2 39.7 3.2 13.4 0 26.8-1.1 40-3.2 13-2.1 25.8-5.5 38.2-9.9 38.5-13.6 71.3-39.6 93.3-73.9 8.2-12.8 15-26.4 20.2-40.7 5.9-16 10.2-32.5 13-49.3 1.5-9 2.6-18.4 3.4-28 .8-9.8 1.2-20 1.2-30.3v-1.8c0-34.8-5.4-66.8-15.9-95.2-10.1-27.2-24.9-50.8-44-70.2zm-77.4 183c0 15.5-.5 30-1.5 43-.9 11.7-2.3 23.3-4.4 34.8-1.7 9.2-4 18.4-7 27.3-2.4 7.2-5.5 14-9.3 20.6a67.1 67.1 0 0 1-11.3 14.6c-3.8 3.8-8.2 7-13 9.5-4.6 2.4-9.4 4.1-14.5 5.1-5.2 1.1-10.4 1.6-15.7 1.5-5.2 0-10.4-.5-15.4-1.5s-9.8-2.8-14.3-5.1c-4.7-2.5-9.1-5.7-12.9-9.5-4.3-4.4-8.1-9.3-11.2-14.6-3.7-6.5-6.8-13.4-9.2-20.6-3-8.9-5.3-18-6.9-27.3-2.1-11.5-3.5-23.1-4.4-34.8-1-13.1-1.5-27.5-1.5-43v-32.7c0-12.3.5-24 1.4-34.7.8-9.8 2.2-19.6 4-29.2 1.6-8.2 3.8-16.2 6.5-24 2.3-6.6 5.3-13 8.8-19.1 3.1-5.2 6.8-10.1 11-14.4 3.8-3.9 8.2-7.3 12.9-10 4.6-2.6 9.6-4.6 14.7-5.8 5.4-1.3 10.9-1.9 16.4-1.9 5.6 0 11.2.6 16.6 1.9 5.2 1.2 10.2 3.2 14.9 5.8 4.8 2.7 9.2 6.1 13.1 10 4.3 4.3 8 9.2 11.1 14.4 3.6 6.1 6.5 12.5 8.9 19.1 2.8 7.8 5 15.9 6.6 24 1.9 9.7 3.2 19.4 4 29.2.9 10.7 1.4 22.4 1.4 34.7v32.7h.2z"/><path id="XMLID_61_" class="st0" d="M2851.8 504.4c-1.1-5.8-2.5-11.4-4.3-17-1.7-5.3-3.8-10.6-6.3-15.6-2.4-4.9-5.2-9.7-8.3-14.2s-6.6-8.8-10.4-12.8c-3.9-4.1-8.1-8-12.6-11.5-4.8-3.7-9.8-7.1-15-10.1-6.9-3.9-14-7.2-21.5-9.9-7.8-2.8-15.8-5.2-23.9-7.1-16.5-4-33.5-6.6-50-9.1h-.2c-18.6-2.9-36.1-5.6-49.9-9.8-4.7-1.2-9.2-3-13.4-5.4-7.6-4.4-13.2-11.5-15.5-20-1.4-4.9-2-10-2-15 0-16.5 5.6-28.9 16.7-37 5.5-3.9 11.8-6.6 18.3-8.2 7.5-1.8 15.1-2.6 22.8-2.5 5.2 0 10.3.4 15.4 1.1 4.7.7 9.3 1.8 13.8 3.3 4.3 1.4 8.4 3.3 12.3 5.5 3.9 2.2 7.5 4.7 10.9 7.6 3.4 2.9 6.6 6.1 9.5 9.6 3 3.6 5.7 7.5 8.1 11.6 5.2 9 9.3 18.7 12.3 28.7h73.3V239.8h-57.8c-1.9 3.2-3.5 6.6-4.8 10.1-1.6 4-3.1 8.5-4.5 13.4-1.7 6-3.3 12.6-4.6 19.6-3.7-8.3-8.7-16-14.9-22.8-3.1-3.3-6.4-6.4-10-9.2-3.7-2.9-7.6-5.5-11.7-7.7-9.1-4.9-18.8-8.4-28.8-10.5-28.5-5.9-58-4.6-85.8 3.7-8.5 2.6-16.8 5.8-24.7 9.8-8.1 4.1-15.8 8.9-23 14.5-15.3 11.9-27.6 27.1-35.9 44.6-4.7 9.9-8.2 20.3-10.4 31-2.6 12.3-3.8 24.9-3.8 37.4 0 7.4.3 14.6.9 21.4.6 6.6 1.5 13.2 2.8 19.7 1.2 6.1 2.8 12.1 4.7 18 1.8 5.6 4.1 11.1 6.6 16.3 2.5 5.1 5.4 10 8.6 14.7 3.2 4.6 6.8 8.9 10.7 13s8.2 7.9 12.7 11.3c4.7 3.6 9.6 6.8 14.8 9.6 13.1 7.1 29 12.8 48.5 17.3 16.9 3.9 34 6.4 49.1 8.6h.2c15.9 2.3 29.6 4.3 39.5 7.3 4.9 1.1 9.6 2.7 14.2 4.8 3.9 1.8 7.5 4.3 10.5 7.4 6 6.5 8.7 15.7 8.7 29.1.1 7.7-1.4 15.4-4.5 22.4-2.9 6.3-7.3 11.8-12.9 16-6 4.5-12.8 7.7-20 9.6-8.5 2.2-17.3 3.3-26.1 3.2-11.6.1-23.1-1.7-34.1-5.4-10-3.5-19.3-8.8-27.3-15.8-8.1-7.2-14.8-15.8-19.8-25.4-5.6-10.8-9.5-22.3-11.6-34.2h-76.5v137.5h59.4c2.2-3.3 4-6.9 5.5-10.6 1.9-4.5 3.5-9 4.8-13.7 1.9-6.5 3.3-13.1 4.3-19.8 5.1 8.3 11.2 15.9 18.4 22.4 7.5 6.8 15.9 12.5 25 17 10.2 4.9 21.1 8.5 32.2 10.7 13.1 2.6 26.5 3.8 39.9 3.8 22.7 0 43.6-3.1 62.3-9.3 18.9-6.2 35.4-15.6 48.9-27.7 14.1-12.7 25-28.5 32-46.1 3.9-9.6 6.7-19.7 8.5-29.9 2-11.4 3-22.9 2.9-34.4 0-6.9-.3-13.5-.8-19.8-.4-6.1-1.2-12.2-2.4-18.3z"/><path id="XMLID_64_" class="st0" d="M2433.5 280.1c-7.6-8.1-16.1-15.4-25.3-21.6-9.7-6.5-20-11.8-30.8-16-11.7-4.5-23.9-7.8-36.3-9.9-13.8-2.3-27.7-3.5-41.7-3.4-13.8 0-27.5 1.3-41 3.9-13 2.5-25.7 6.4-37.9 11.6-24.2 10.2-45.9 25.6-63.6 44.9-18.4 20.1-32.7 44.4-42.5 72.2-10.3 29.2-15.5 61.9-15.5 97.3v.9c-.1 17.6 1.2 35.2 3.7 52.7 2.3 15.7 5.9 31.1 10.8 46.2 4.5 13.7 10.5 26.9 17.7 39.5 6.8 11.7 14.9 22.7 24.2 32.6 9.1 9.7 19.3 18.3 30.4 25.6 11.4 7.5 23.5 13.7 36.2 18.5 13.5 5.1 27.5 8.8 41.8 11.2 15.5 2.6 31.3 3.8 47 3.8 17.9 0 35.8-1.7 53.3-5.4 14.9-3.1 29.4-7.7 43.3-13.8 11.5-5.1 22.4-11.5 32.5-19.1 4.2-3.2 8.2-6.7 11.9-10.5 3.2-3.3 6.2-6.8 8.8-10.5v-52.1c-14.8 7.8-30.3 13.9-46.5 18.1-9.4 2.5-19 4.5-28.7 5.8-10.3 1.4-20.7 2.2-31.1 2.2-9.4 0-18.7-.5-28-1.5-8.2-.9-16.3-2.5-24.3-4.8-7.2-2-14.1-4.9-20.6-8.4-6.2-3.4-11.9-7.5-17-12.3-5.2-4.9-9.7-10.5-13.5-16.6-4.1-6.7-7.4-13.8-10-21.2-2.9-8.5-5.1-17.2-6.6-26.1-1.7-10.4-2.8-20.8-3.2-31.3h235.9c3.5-9.4 6.4-19 8.5-28.9 1.2-6 2.1-12 2.6-18 .7-7 1-14.3 1-22.3 0-27.4-3.8-52.7-11.4-75-7.8-22.8-19.2-42.3-34.1-58.3zm-69.4 142.6h-131.7c.3-11.1.9-21.6 1.9-31.1.9-8.8 2.2-17.5 4-26.2 1.5-7.3 3.5-14.5 6-21.5 2.1-5.9 4.8-11.6 7.9-17 2.8-4.7 6.1-9 9.9-12.8 3.5-3.5 7.5-6.5 11.9-8.8 4.3-2.3 9-4 13.8-5.1 5.2-1.1 10.4-1.7 15.7-1.7 4.8 0 9.6.5 14.2 1.6 8.8 2.1 16.7 6.7 22.7 13.4 3.3 3.7 6.2 7.8 8.5 12.2 10.2 19 15.1 48.4 15.1 89.9v7.1h.1z"/><path id="XMLID_67_" class="st0" d="M2015.8 280.1c-7.6-8.2-16.1-15.4-25.3-21.6-9.7-6.5-20-11.8-30.8-16-11.7-4.5-23.9-7.8-36.3-9.9-13.8-2.3-27.7-3.5-41.7-3.4-13.8 0-27.5 1.3-41 3.9-13 2.5-25.7 6.4-37.9 11.6-24.2 10.2-45.9 25.6-63.6 44.9-18.4 20.1-32.7 44.4-42.5 72.2-10.3 29.2-15.5 61.9-15.5 97.3v.9c-.1 17.6 1.2 35.2 3.7 52.7 2.3 15.7 5.9 31.1 10.8 46.2 4.5 13.7 10.5 26.9 17.7 39.5 6.8 11.7 14.9 22.7 24.2 32.6 9.1 9.7 19.3 18.3 30.4 25.6 11.4 7.5 23.5 13.7 36.2 18.5 13.5 5.1 27.5 8.8 41.8 11.2 15.5 2.6 31.3 3.8 47 3.8 17.9.1 35.8-1.7 53.3-5.3 14.9-3.1 29.4-7.7 43.3-13.9 11.5-5.1 22.4-11.5 32.5-19.1 4.2-3.2 8.2-6.7 11.9-10.5 3.2-3.3 6.2-6.8 8.8-10.5v-52.1c-14.7 7.8-30.3 13.9-46.5 18.1-9.4 2.5-19 4.5-28.7 5.8-10.3 1.4-20.7 2.2-31.1 2.2-9.4 0-18.7-.5-28-1.5-8.2-.9-16.3-2.5-24.3-4.8-7.2-2-14.1-4.9-20.6-8.4-12.5-6.8-23.1-16.8-30.5-28.9-4.1-6.7-7.4-13.8-10-21.2-2.9-8.5-5.1-17.2-6.6-26.1-1.7-10.4-2.8-20.8-3.2-31.3h235.9c3.5-9.4 6.4-19 8.4-28.9 1.2-6 2.1-12 2.6-18 .7-6.9 1-14.2 1-22.3 0-27.4-3.8-52.7-11.4-75-7.7-22.8-19.1-42.3-34-58.3zm-71.3 142.6h-131.7c.3-11.2 1-21.7 1.9-31.1.9-8.8 2.2-17.5 4-26.2 1.5-7.3 3.5-14.5 6-21.5 2.1-5.9 4.8-11.6 7.9-17 2.8-4.7 6.1-9 9.9-12.8 3.5-3.5 7.5-6.5 11.9-8.8 4.3-2.3 9-4 13.8-5.1 5.2-1.1 10.4-1.7 15.7-1.7 4.8 0 9.6.5 14.2 1.6 8.8 2.1 16.7 6.7 22.7 13.4 3.3 3.7 6.2 7.8 8.5 12.2 10.2 19 15.1 48.4 15.1 89.9l.1 7.1z"/><path id="XMLID_68_" class="st0" d="M3993.5 574.6c-1.2-6.2-3-12.4-5.3-18.3-2.3-5.8-5.1-11.3-8.3-16.6-3.2-5.2-6.9-10-11-14.5-4.1-4.4-8.5-8.4-13.3-12-4.8-3.5-9.9-6.6-15.3-9.1s-11-4.4-16.8-5.7c-5.9-1.3-11.9-2-18-2-5.9 0-11.9.7-17.7 2-5.7 1.3-11.3 3.2-16.6 5.7s-10.4 5.6-15.1 9.1c-4.8 3.6-9.2 7.6-13.2 12-4.1 4.5-7.8 9.3-11 14.5-3.3 5.3-6 10.8-8.3 16.6-2.3 5.9-4.1 12.1-5.3 18.3-1.2 6.5-1.8 13-1.8 19.6 0 6.4.6 12.9 1.8 19.2 2.4 12.1 7 23.7 13.6 34.2 3.2 5.1 6.9 9.8 11 14.2 4 4.3 8.4 8.3 13.2 11.7 4.7 3.5 9.8 6.4 15.1 8.9 5.3 2.4 10.9 4.3 16.6 5.6 5.8 1.3 11.7 2 17.7 2s12.1-.7 18-2c5.8-1.3 11.4-3.2 16.8-5.6 5.4-2.4 10.5-5.4 15.3-8.9s9.3-7.4 13.3-11.7c4.1-4.4 7.8-9.1 11-14.2 6.6-10.4 11.3-22 13.6-34.2 1.2-6.3 1.8-12.8 1.8-19.2 0-6.6-.6-13.1-1.8-19.6z"/><path id="XMLID_70_" class="st0" d="M3786.4 613c-8.6 0-15.4-.6-20.5-2s-9.1-3.4-11.8-6.2c-1.4-1.4-2.5-3.1-3.4-4.9-.9-2-1.6-4.1-2-6.2-.9-4.2-1.3-9.3-1.3-16.6V387.8c0-12.5-.7-25-2.3-37.5-1.4-11-3.6-21.8-6.7-32.4-2.8-9.4-6.4-18.6-10.9-27.3-4.1-8-9.1-15.4-14.8-22.3-5.5-6.5-11.7-12.3-18.5-17.3-6.8-4.9-14.2-9.1-22-12.3-8.1-3.3-16.6-5.8-25.2-7.4-9.3-1.7-18.8-2.5-28.2-2.4-9.1 0-18.1.7-27 2.2-8.3 1.4-16.4 3.5-24.3 6.4-14.9 5.4-28.6 13.6-40.4 24.1-11.9 10.7-21.9 23.4-29.6 37.4-8.3 15.2-14.7 31.5-18.8 48.4v-7.2c0-13.2-1-26.4-2.8-39.5-1.5-10.7-3.6-21.4-6.2-31.9-2.4-9.9-5.4-19.6-9-29h-155.6v78.1h2.4c7.9 0 13.8.6 18.7 1.8 5 1.1 9.6 3.6 13.2 7.3 3.6 3.7 6.2 8.8 7.9 15.5 1.8 6.9 2.6 15.6 2.6 26.5v205.4c0 8.4-.4 14.5-1.3 19.3-1 5.2-2.6 9-5.1 11.8-1.3 1.4-2.8 2.7-4.4 3.6-1.9 1-3.9 1.8-6 2.3-4.3 1.1-9.8 1.6-17.4 1.6h-10.6v66.4h226.5V613h-8.1c-9.9 0-16.7-.4-22.1-1.3-5.8-.9-9.9-2.5-12.8-4.8-2.9-2.3-4.8-5.4-6-9.8-1-3.9-1.5-9-1.5-16.4V438.1c0-18.5 1.9-35.4 5.7-50.3 3.7-14.5 9.1-27 16.1-37.2 13.9-20.3 33.7-31 57.2-31 37.8 0 56.2 23.8 56.2 72.7v188.4c0 7.5-.6 12.9-1.9 17.1-.6 2-1.5 3.9-2.7 5.7-1.1 1.6-2.5 3-4.1 4.1-3.1 2.2-7.2 3.6-13 4.4-5 .7-11.2 1-20.7 1h-8.1v66.4h226.5V613h-5.9z"/><path id="XMLID_73_" class="st0" d="M1639.2 291c-2.2-9.5-4.7-18.8-7.6-27.6-2.8-8.7-6.1-17.3-9.6-25.4-3.4-7.9-7.3-15.6-11.5-23.2-4.1-7.2-8.6-14.2-13.5-20.9-4.7-6.5-9.8-12.8-15.3-18.7-10.7-11.6-22.7-22-35.8-30.8-6.6-4.4-13.4-8.5-20.4-12.1-7.2-3.7-14.5-7-22-9.9-7.7-3-15.6-5.5-23.6-7.7-8-2.2-16.5-4-25-5.5-17.9-3-36.1-4.4-54.2-4.4H1128v72.8h18.6c7.8 0 13.6.6 18.5 1.8 4.9 1.1 9.4 3.4 13.1 6.9 3.6 3.5 6.1 8.3 7.8 14.5 1.7 6.4 2.6 14.4 2.6 24.5v337.2c0 10.1-.8 18.1-2.6 24.5-1.7 6.2-4.2 11-7.8 14.5-3.6 3.5-8.2 5.8-13.1 6.9-4.8 1.2-10.7 1.8-18.5 1.8H1128v69.2h257.3c82.3 0 146.6-22.7 190.9-67.3 5.9-5.9 11.3-12.2 16.4-18.7 5.2-6.8 10.1-13.9 14.5-21.2 4.6-7.7 8.8-15.6 12.5-23.8 3.9-8.6 7.4-17.4 10.4-26.4 3.1-9.3 5.9-19 8.2-29.1 2.4-10.1 4.4-20.8 6-31.8 1.6-11.1 2.8-22.8 3.6-34.6.8-12 1.2-24.6 1.2-37.5v-1.8c.1-22.2-1.4-44.4-4.5-66.3-1.3-10.3-3.1-20.3-5.3-29.9zm-127.4 115.9c0 34.8-2.2 63.3-6.6 87.2-2.1 11.5-5.1 22.8-9 33.9-1.8 4.9-3.8 9.8-6.1 14.5-2.1 4.5-4.6 8.8-7.2 13-2.5 4-5.4 7.8-8.4 11.4-3 3.5-6.2 6.8-9.7 9.8-3.4 3-7.1 5.8-11 8.3s-8.1 4.8-12.3 6.8c-4.5 2-9 3.8-13.7 5.2-5 1.5-10.1 2.8-15.2 3.7-11.6 2.1-23.3 3-35 3h-55.8V187h72c10.3-.1 20.7.8 30.8 2.7 8.8 1.6 17.4 4.4 25.5 8.1 3.8 1.8 7.4 3.8 10.8 6.1 3.4 2.3 6.6 4.7 9.6 7.5 3 2.7 5.9 5.7 8.5 8.8 2.7 3.2 5.2 6.6 7.4 10.2 4.8 7.7 8.7 15.9 11.7 24.5 3.4 9.8 6 19.8 7.9 30 3.9 21.1 5.8 46.2 5.8 76.7v45.3z"/></g></svg>