<svg version="1.1" id="Layer_1" xmlns="http://www.w3.org/2000/svg" x="0" y="0" viewBox="0 0 695 592" xml:space="preserve"><style>.st0{fill:#e51c40}</style><g id="XMLID_29_"><path id="XMLID_34_" class="st0" d="M511.2 186.1c-2.1-9.4-4.7-18.7-7.6-27.6-2.8-8.7-6.1-17.3-9.6-25.4-3.4-7.9-7.3-15.6-11.5-23.2-4.1-7.2-8.6-14.2-13.4-20.9-4.7-6.5-9.8-12.8-15.3-18.7-10.7-11.6-22.7-22-35.8-30.8-6.6-4.4-13.4-8.5-20.4-12.1-7.2-3.7-14.5-7-22-9.9-7.7-3-15.6-5.5-23.6-7.7-8-2.2-16.5-4-25-5.5-17.9-3-36.1-4.4-54.2-4.4H0v72.8h18.6c7.8 0 13.7.6 18.5 1.8 4.9 1.1 9.4 3.4 13.1 6.9 3.6 3.5 6.1 8.2 7.8 14.5 1.7 6.4 2.6 14.4 2.6 24.5v337.2c0 10.1-.8 18.1-2.6 24.5-1.7 6.2-4.2 11-7.8 14.5-3.6 3.5-8.2 5.8-13.1 6.9-4.8 1.2-10.7 1.8-18.5 1.8H0v69.2h257.3c82.3 0 146.6-22.7 190.9-67.3 5.9-5.9 11.3-12.1 16.4-18.7 5.2-6.8 10.1-13.9 14.5-21.2 4.6-7.7 8.8-15.6 12.5-23.8 3.9-8.6 7.4-17.4 10.4-26.4 3.1-9.3 5.9-19.1 8.2-29.1 2.4-10.2 4.4-20.9 6-31.8 1.6-11.1 2.8-22.7 3.7-34.6.8-12 1.2-24.6 1.2-37.5v-1.8c.1-22.2-1.4-44.4-4.5-66.3-1.4-10.3-3.2-20.3-5.4-29.9zM380 306.2c0 34.8-2.2 63.3-6.6 87.2-2.1 11.5-5.1 22.8-9 33.9-1.8 4.9-3.8 9.8-6.1 14.5-2.1 4.5-4.6 8.8-7.2 13-2.5 4-5.4 7.8-8.4 11.4-3 3.5-6.2 6.8-9.7 9.8-3.4 3-7.1 5.8-11 8.3-3.9 2.5-8.1 4.8-12.3 6.8-4.5 2-9 3.8-13.7 5.2-5 1.5-10.1 2.8-15.2 3.7-11.6 2.1-23.3 3.1-35 3H190V86.3h72c10.3-.1 20.7.8 30.8 2.7 8.8 1.6 17.3 4.4 25.5 8.1 3.8 1.8 7.4 3.8 10.8 6.1 3.4 2.3 6.6 4.7 9.6 7.5 3 2.7 5.9 5.7 8.5 8.8 2.7 3.2 5.2 6.6 7.4 10.2 4.8 7.7 8.7 15.9 11.7 24.5 3.4 9.8 6 19.8 7.9 30 3.9 21.1 5.8 46.2 5.8 76.7v45.3z"/><path id="XMLID_35_" class="st0" d="M691.3 484.6c-.8-2.6-1.8-5.2-2.8-7.8-16.6-39.3-60.2-59.6-100.9-47.1-43.8 13.5-68.4 60-54.9 103.8 13.5 43.8 60 68.4 103.8 54.9s68.3-60 54.8-103.8z"/></g></svg>